<?xml version="1.0" standalone="no"?>
<!DOCTYPE svg PUBLIC "-//W3C//DTD SVG 20010904//EN"
 "http://www.w3.org/TR/2001/REC-SVG-20010904/DTD/svg10.dtd">
<svg version="1.0" xmlns="http://www.w3.org/2000/svg"
 width="276.000000pt" height="276.000000pt" viewBox="0 0 276.000000 276.000000"
 preserveAspectRatio="xMidYMid meet">
<metadata>
Created by potrace 1.11, written by Peter Selinger 2001-2013
</metadata>
<g transform="translate(0.000000,276.000000) scale(0.100000,-0.100000)"
fill="#000000" stroke="none">
<path d="M1310 2579 c-23 -55 -22 -129 2 -168 19 -31 -16 -102 -89 -184 -116
-127 -106 -121 -118 -76 -6 23 -2 30 23 45 50 29 75 85 70 155 -2 32 -7 61
-10 65 -13 12 -88 -60 -112 -107 l-23 -48 -31 32 c-30 31 -31 34 -20 74 11 45
4 108 -13 119 -15 9 -39 -16 -39 -42 0 -30 -17 -40 -38 -22 -42 36 -182 66
-182 39 0 -25 23 -65 61 -106 23 -25 37 -45 31 -45 -5 0 -19 -18 -29 -39 -18
-36 -20 -38 -31 -20 -7 11 -12 41 -11 68 3 77 -50 156 -118 176 -34 10 -45
-21 -29 -86 15 -68 39 -105 86 -134 21 -13 40 -33 43 -45 5 -18 2 -17 -24 8
-33 32 -91 53 -148 54 -30 0 -40 6 -54 30 -21 37 -31 31 -46 -26 -14 -58 -14
-119 1 -134 20 -20 2 -23 -23 -4 -48 37 -101 45 -196 28 -24 -4 -45 -12 -49
-17 -9 -16 36 -69 79 -91 50 -26 163 -32 190 -10 14 12 20 10 40 -13 16 -19
22 -36 19 -56 -4 -27 -5 -28 -28 -12 -24 15 -24 15 -24 -27 0 -23 5 -50 10
-60 9 -18 8 -18 -21 -8 -30 10 -114 6 -126 -6 -4 -4 11 -24 33 -47 41 -42 126
-76 165 -66 23 6 32 -7 24 -34 -7 -20 -7 -20 -43 2 -30 17 -53 22 -118 22
l-81 0 -17 52 c-9 29 -28 64 -41 78 -48 47 -115 60 -115 22 0 -22 52 -97 89
-128 l30 -25 -29 -6 c-65 -12 -149 -89 -136 -123 5 -12 17 -14 54 -11 70 7
120 34 143 79 17 35 23 39 47 33 44 -11 46 -16 11 -31 -41 -17 -76 -49 -95
-85 -18 -34 -18 -38 2 -38 9 0 34 -15 57 -32 22 -18 81 -60 131 -93 50 -33 90
-64 90 -69 -3 -17 -119 -81 -151 -84 -35 -2 -52 13 -34 31 14 14 14 77 1 111
-13 36 -99 121 -111 109 -21 -21 -18 -108 6 -168 14 -32 23 -60 21 -62 -9 -9
-34 11 -50 40 -33 57 -88 106 -143 127 -65 24 -73 25 -73 4 0 -28 42 -119 66
-141 20 -18 75 -35 150 -46 11 -1 33 -13 49 -25 23 -18 25 -22 9 -22 -39 0
-114 -47 -164 -103 -29 -32 -50 -61 -46 -64 9 -10 123 -10 165 0 l34 7 -40
-29 c-46 -33 -89 -86 -95 -115 -6 -36 100 -43 162 -11 34 17 88 81 96 112 5
18 10 21 24 13 10 -6 20 -22 22 -37 5 -42 39 -42 80 1 41 42 59 48 64 20 7
-40 23 -72 53 -107 35 -39 87 -65 101 -51 19 19 -38 163 -80 202 -20 19 -20
19 47 40 113 34 217 52 181 31 -10 -5 -18 -19 -18 -30 0 -11 -6 -32 -14 -47
-18 -35 -5 -69 30 -83 38 -14 79 -3 94 27 12 21 11 30 -3 59 -9 20 -17 44 -17
55 0 10 -5 22 -11 26 -8 4 -7 9 2 15 49 31 220 -65 301 -170 101 -129 119
-211 79 -353 -14 -49 -18 -85 -14 -140 9 -134 -57 -311 -119 -320 -13 -2 -22
-7 -21 -13 4 -16 47 -17 107 -2 36 10 58 12 62 5 4 -6 22 -7 43 -3 63 11 158
8 167 -6 3 -5 15 -9 26 -9 20 0 20 1 5 18 -10 10 -29 47 -43 83 -25 60 -26 70
-19 159 9 102 9 158 2 315 -8 170 25 255 161 407 28 32 52 63 52 68 0 5 16 12
36 16 29 5 38 3 51 -15 23 -34 58 -43 98 -26 33 13 38 22 38 67 0 22 49 39 88
31 41 -8 46 -21 12 -34 -59 -22 -117 -105 -111 -157 3 -25 7 -27 41 -25 79 5
153 74 142 131 -5 27 0 27 27 2 29 -27 77 -48 126 -56 45 -7 57 -28 32 -57
-18 -21 -41 -133 -33 -162 10 -37 34 -55 75 -55 43 0 88 34 88 67 0 42 -46
145 -72 165 -28 19 -38 48 -17 48 6 0 24 9 40 21 l29 20 0 -21 c0 -12 7 -37
16 -56 25 -52 136 -97 150 -60 8 21 -13 89 -41 130 -30 44 -30 46 -6 46 11 0
21 -9 25 -22 16 -64 158 -157 186 -123 23 27 -61 154 -103 155 -7 1 0 7 14 15
53 29 112 155 72 155 -22 0 -81 -37 -125 -78 l-38 -36 9 31 c5 17 7 34 4 36
-2 3 9 8 25 12 46 10 48 33 5 71 -50 45 -85 64 -136 72 l-42 7 35 21 c23 14
55 21 93 23 32 1 72 8 88 16 31 17 59 61 59 95 0 19 -4 20 -37 14 -61 -10
-116 -38 -153 -77 -18 -20 -46 -39 -62 -42 -15 -4 -54 -33 -85 -64 -69 -70
-84 -78 -153 -87 l-53 -7 27 49 26 49 -17 69 c-10 38 -23 71 -29 73 -6 2 -27
-12 -47 -32 -57 -56 -72 -46 -36 25 33 66 57 83 132 94 52 8 56 5 29 -22 -23
-23 -38 -142 -22 -172 6 -11 29 -24 52 -31 34 -9 48 -8 75 5 31 15 36 24 36
68 0 32 -57 127 -83 139 l-25 12 25 7 c14 4 39 14 56 23 l31 16 17 -40 c25
-55 103 -92 147 -68 27 14 24 27 -21 80 -31 36 -37 50 -27 56 29 17 58 71 66
121 4 29 4 55 0 58 -25 15 -140 -85 -160 -139 -7 -20 -20 -38 -30 -40 -16 -4
-16 -2 1 32 33 62 27 141 -10 141 -41 0 -106 -118 -93 -169 4 -17 -3 -19 -69
-23 -40 -3 -74 -4 -76 -3 -1 1 0 21 4 44 6 35 10 41 31 41 34 0 90 28 108 54
16 22 20 93 6 115 -12 18 -95 -19 -123 -54 -11 -15 -22 -24 -25 -22 -2 3 -6
25 -9 49 -6 44 -4 46 50 101 31 31 57 64 57 74 1 10 2 32 4 48 1 30 -24 115
-35 115 -11 0 -49 -39 -78 -83 -41 -59 -53 -106 -36 -145 7 -18 10 -47 7 -67
-3 -19 -6 -35 -7 -35 0 0 -34 31 -75 69 -41 39 -79 67 -84 64 -5 -3 -7 -29 -3
-59 6 -51 5 -54 -17 -54 -12 0 -39 -9 -59 -20 -25 -13 -36 -15 -32 -6 3 7 -4
36 -14 63 l-19 51 38 6 c40 6 94 52 110 93 5 13 9 42 9 64 0 37 -2 40 -22 34
-51 -16 -122 -62 -140 -90 l-18 -30 0 38 c0 29 7 43 31 65 59 53 49 141 -20
177 -27 13 -31 13 -45 -1 -9 -8 -16 -32 -16 -53 0 -36 -1 -37 -33 -33 -45 5
-108 -13 -136 -39 l-23 -22 7 22 c6 18 2 21 -27 22 -37 2 -110 7 -118 8 -3 1
-6 34 -7 75 -1 70 -22 136 -42 136 -5 0 -18 -23 -31 -51z m48 -44 c0 -16 -1
-17 -5 -2 -2 9 -8 17 -13 17 -4 0 -7 8 -5 18 2 9 4 22 5 27 3 15 18 -37 18
-60z m-26 -13 c-7 -2 -9 -9 -5 -15 3 -6 8 -29 9 -51 2 -32 1 -37 -7 -23 -6 9
-8 21 -4 26 3 5 1 12 -4 16 -5 3 -8 18 -7 33 5 35 4 34 18 26 9 -6 9 -9 0 -12z
m31 -37 c-7 -21 -13 -19 -13 6 0 11 4 18 10 14 5 -3 7 -12 3 -20z m407 11 c0
-3 -4 -8 -10 -11 -5 -3 -10 -1 -10 4 0 6 5 11 10 11 6 0 10 -2 10 -4z m50 -62
c0 -25 -18 -15 -29 17 -6 18 -11 35 -11 38 1 12 40 -42 40 -55z m-1173 34 c4
-7 17 -18 28 -24 11 -7 19 -19 19 -28 -1 -9 2 -14 6 -11 4 3 11 -7 15 -23 13
-46 14 -72 3 -72 -6 0 -8 9 -5 20 3 11 1 20 -4 20 -5 0 -8 3 -8 8 3 19 -2 33
-10 28 -5 -4 -15 7 -23 24 -11 27 -20 34 -38 32 -3 0 -7 8 -7 19 -2 21 12 25
24 7z m1118 -8 c3 -5 0 -10 -7 -10 -10 0 -9 -3 2 -10 8 -5 11 -12 7 -16 -4 -4
-1 -14 6 -22 10 -13 9 -14 -9 -2 -14 9 -21 23 -20 42 1 28 10 36 21 18z m-937
-45 c-3 -3 -9 2 -12 12 -6 14 -5 15 5 6 7 -7 10 -15 7 -18z m-43 -3 c-3 -3
-11 0 -18 7 -9 10 -8 11 6 5 10 -3 15 -9 12 -12z m68 -2 c3 -11 1 -18 -4 -14
-5 3 -9 12 -9 20 0 20 7 17 13 -6z m-197 -12 c5 -7 2 -9 -7 -4 -8 4 -3 -2 11
-13 14 -11 21 -21 16 -21 -5 0 -3 -7 4 -15 15 -18 0 -20 -23 -2 -19 14 -34 67
-19 67 6 0 14 -5 18 -12z m264 -24 c0 -8 -5 -14 -12 -14 -6 0 -8 3 -5 6 3 4 1
16 -5 28 -10 19 -10 20 5 7 10 -7 17 -20 17 -27z m773 27 c4 -1 7 -6 7 -12 0
-8 -4 -9 -13 0 -8 6 -16 8 -19 5 -3 -3 -9 -1 -12 4 -3 6 2 9 11 7 10 -2 21 -4
26 -4z m-859 -16 c11 -8 17 -15 14 -15 -4 0 -14 -3 -24 -7 -13 -5 -16 -3 -11
10 4 11 2 14 -7 11 -8 -3 -17 -1 -21 5 -9 16 27 13 49 -4z m599 1 c4 -10 -4
-12 -30 -10 -19 1 -38 6 -41 10 -4 4 5 4 20 0 15 -3 30 -2 33 4 8 13 12 13 18
-4z m77 -6 c0 -4 -13 -10 -30 -12 -16 -3 -28 -2 -25 0 3 3 1 10 -5 17 -6 8 1
10 25 7 19 -2 35 -8 35 -12z m125 10 c-3 -5 -13 -10 -21 -10 -8 0 -12 5 -9 10
3 6 13 10 21 10 8 0 12 -4 9 -10z m-455 -40 c0 -30 -4 -40 -16 -40 -13 0 -14
3 -5 13 6 8 8 17 4 20 -11 12 -23 7 -23 -9 0 -8 -5 -12 -11 -9 -6 4 -10 1 -8
-6 1 -8 1 -23 0 -34 -1 -17 -3 -18 -11 -5 -8 12 -10 9 -10 -12 0 -15 -4 -29
-8 -32 -5 -3 -7 5 -6 17 1 12 3 30 3 39 1 11 6 15 16 12 11 -4 13 -2 9 9 -3
10 7 27 27 46 17 17 34 31 35 31 2 0 4 -18 4 -40z m555 30 c3 -5 2 -10 -4 -10
-5 0 -13 5 -16 10 -3 6 -2 10 4 10 5 0 13 -4 16 -10z m-145 -14 c0 -8 8 -17
17 -20 15 -6 15 -8 3 -16 -22 -14 -30 -12 -24 5 4 9 0 15 -9 15 -9 0 -14 -9
-14 -24 0 -22 2 -23 23 -16 38 15 27 -17 -13 -39 -15 -8 -23 -8 -23 -1 0 5 6
10 14 10 8 0 18 5 21 11 4 6 0 9 -11 7 -12 -2 -20 5 -25 22 -6 22 -7 20 -8
-12 -1 -25 -6 -38 -15 -38 -7 0 -17 -10 -21 -22 -3 -13 -9 -18 -11 -11 -7 16
19 73 50 111 30 34 46 41 46 18z m144 -18 c-8 -13 -67 -9 -87 6 -12 9 -14 15
-6 18 17 6 98 -15 93 -24z m-790 6 c3 -8 2 -12 -4 -9 -6 3 -10 10 -10 16 0 14
7 11 14 -7z m-76 -8 c-7 -7 -19 -11 -25 -9 -22 9 -14 23 12 23 21 0 24 -2 13
-14z m527 -7 c-4 -5 6 -9 21 -9 27 0 27 1 8 15 -18 14 -17 14 9 5 36 -13 50
-13 42 0 -3 6 1 10 9 10 25 0 7 -27 -22 -36 -32 -9 -63 -6 -79 8 -14 12 -7 32
8 22 5 -3 7 -10 4 -15z m825 -21 c0 -4 -9 -6 -20 -5 -23 1 -25 8 -8 25 9 9 14
9 20 -1 4 -6 8 -15 8 -19z m-1295 12 c25 -11 -1 -11 -35 0 -20 6 -21 8 -5 8
11 0 29 -3 40 -8z m435 -16 c0 -3 -7 -15 -16 -29 -24 -36 -23 -122 2 -172 17
-35 19 -45 8 -54 -16 -13 -54 22 -54 51 0 11 -10 26 -23 35 l-23 15 40 84 c26
56 44 82 53 79 7 -3 13 -7 13 -9z m375 -33 c-2 -14 -4 -43 -4 -63 l-1 -37 -42
19 c-43 20 -79 25 -91 14 -20 -20 103 -149 135 -140 26 6 30 -7 17 -58 -13
-52 -39 -83 -39 -46 0 38 -32 91 -74 122 -39 28 -41 28 -48 9 -4 -11 -5 -31
-2 -45 2 -14 1 -26 -4 -26 -4 0 -9 12 -10 26 -3 42 -10 44 -56 18 -45 -25 -76
-61 -76 -89 0 -8 -5 -15 -11 -15 -8 0 -10 17 -7 53 7 66 72 186 103 187 35 0
82 37 100 77 l17 39 48 -10 c44 -9 48 -12 45 -35z m195 24 c0 -14 -4 -25 -10
-25 -5 0 -9 -3 -9 -7 4 -24 -4 -33 -28 -33 l-28 1 30 14 c17 7 26 14 21 14 -5
1 -3 7 3 15 9 11 8 14 -6 12 -10 0 -22 -10 -27 -21 l-8 -20 -8 20 c-8 18 -9
18 -9 2 -1 -10 -5 -16 -10 -13 -5 3 -12 -6 -16 -21 -5 -21 -8 -24 -16 -12 -7
12 -9 11 -9 -3 0 -9 -4 -20 -10 -23 -12 -7 -2 21 19 53 12 20 89 67 114 71 4
1 7 -10 7 -24z m-1226 -1 c6 -15 4 -15 -11 -3 -10 7 -20 15 -22 16 -2 2 3 3
11 3 9 0 19 -7 22 -16z m774 -30 c-5 -20 -7 -42 -4 -50 3 -8 -7 -28 -22 -45
l-27 -30 -2 36 c-1 19 -11 50 -22 69 -12 18 -21 35 -21 38 0 2 15 2 34 0 19
-2 43 1 53 7 10 6 19 11 20 11 1 0 -3 -16 -9 -36z m689 4 c-3 -7 -5 -2 -5 12
0 14 2 19 5 13 2 -7 2 -19 0 -25z m-1317 1 c0 -11 -4 -17 -10 -14 -5 3 -10 -2
-10 -12 0 -15 -2 -16 -10 -3 -6 10 -4 20 7 32 20 23 23 23 23 -3z m34 14 c-5
-5 -12 -12 -16 -18 -4 -6 -8 -2 -8 8 0 9 7 17 17 17 9 0 12 -3 7 -7z m55 -33
c-32 -57 -48 -69 -88 -63 l-34 6 29 14 c16 7 21 11 11 8 -10 -3 -15 -1 -12 5
3 6 14 10 23 10 14 0 15 2 3 9 -12 8 -9 11 12 16 15 4 25 11 22 15 -5 7 7 12
48 19 5 0 -2 -17 -14 -39z m94 -55 c20 -38 38 -82 41 -97 l5 -28 -37 29 c-20
17 -59 35 -87 42 -27 7 -52 13 -54 15 -2 2 11 20 28 39 18 20 35 50 38 67 8
38 19 27 66 -67z m133 79 c-3 -16 -24 -34 -41 -33 -5 0 1 6 15 14 14 8 19 14
12 15 -7 0 -10 5 -7 10 10 16 23 12 21 -6z m1054 7 c0 -5 -7 -12 -16 -15 -24
-9 -28 -7 -14 9 14 17 30 20 30 6z m-1719 -28 c-12 -20 -14 -14 -5 12 4 9 9
14 11 11 3 -2 0 -13 -6 -23z m1659 -16 c0 -5 -4 -5 -10 -2 -5 3 -10 14 -10 23
0 15 2 15 10 2 5 -8 10 -19 10 -23z m-1595 -16 c13 -22 37 -52 52 -66 31 -30
103 -66 115 -59 12 7 13 -33 3 -64 -4 -10 -9 -10 -27 2 -13 7 -47 17 -76 20
-54 7 -126 43 -134 68 -3 7 4 25 15 40 12 17 20 41 19 63 -1 19 1 35 3 35 3 0
16 -18 30 -39z m39 32 c3 -4 16 -8 28 -10 12 -2 25 -8 29 -14 3 -6 9 -10 13
-9 15 2 34 -27 26 -40 -6 -10 -11 -6 -16 15 -6 26 -8 27 -15 10 -7 -18 -8 -18
-8 -2 -1 10 -6 15 -11 12 -6 -3 -13 0 -16 8 -5 14 -34 19 -34 6 0 -4 8 -13 18
-18 9 -6 13 -11 7 -11 -5 -1 -1 -5 9 -9 15 -6 16 -9 5 -13 -9 -3 -26 11 -47
38 -28 38 -30 44 -14 44 10 0 22 -3 26 -7z m1613 -10 c-9 -9 -20 -13 -24 -9
-4 4 -1 11 7 16 25 16 35 11 17 -7z m-1415 -35 c-8 -8 -9 -4 -5 13 4 13 8 18
11 10 2 -7 -1 -18 -6 -23z m268 -27 c0 -14 -6 -6 -35 51 -4 7 3 2 14 -11 12
-13 21 -31 21 -40z m55 39 c-3 -5 -12 -10 -18 -10 -7 0 -6 4 3 10 19 12 23 12
15 0z m134 -12 c-7 -13 -38 -51 -70 -86 -53 -56 -59 -67 -59 -105 0 -23 9 -62
20 -86 24 -53 24 -50 0 -44 -24 6 -41 57 -50 145 -5 65 -5 67 15 62 15 -4 28
2 42 18 12 13 40 44 63 71 47 52 57 58 39 25z m126 1 c-5 -13 -3 -19 3 -15 5
3 12 -4 14 -17 5 -27 0 -47 -13 -47 -4 0 -6 6 -3 14 3 8 0 24 -6 36 -6 12 -9
28 -6 36 9 22 18 16 11 -7z m750 -4 c0 -27 -10 -33 -18 -11 -4 10 9 36 18 36
0 0 0 -11 0 -25z m85 16 c0 -5 -14 -14 -30 -20 -21 -7 -29 -7 -24 0 5 8 33 24
52 28 1 1 2 -3 2 -8z m-1452 -32 c-3 -8 -7 -3 -11 10 -4 17 -3 21 5 13 5 -5 8
-16 6 -23z m1122 27 c0 -11 -19 -15 -25 -6 -3 5 1 10 9 10 9 0 16 -2 16 -4z
m-40 -21 c-2 -14 -38 -26 -45 -15 -4 6 6 10 22 10 22 0 25 2 13 11 -10 7 -11
9 -2 7 8 -2 13 -8 12 -13z m348 -15 c-7 -11 -22 -20 -33 -20 -17 0 -15 3 10
20 37 25 38 25 23 0z m-1333 -9 c-13 -13 -65 -22 -65 -12 0 15 13 21 44 21 19
0 26 -4 21 -9z m791 0 c-4 -5 0 -12 6 -14 8 -4 7 -6 -3 -6 -9 -1 -19 6 -23 14
-3 9 0 15 10 15 8 0 13 -4 10 -9z m129 -66 c21 -60 22 -71 11 -119 -14 -59
-11 -76 12 -76 10 0 -12 -16 -48 -35 -35 -19 -65 -35 -67 -35 -11 0 1 30 19
46 12 10 18 13 13 5 -6 -10 -4 -12 4 -7 7 5 10 15 7 23 -3 8 -2 12 3 9 19 -12
53 75 46 117 -9 49 -14 74 -24 107 -23 74 -6 50 24 -35z m-1105 55 c12 -8 11
-10 -7 -10 -12 0 -25 5 -28 10 -8 13 15 13 35 0z m-289 -22 l12 -23 -23 20
c-21 18 -23 18 -17 2 6 -17 5 -17 -15 -2 -26 18 -42 20 -32 4 4 -8 0 -8 -15 0
-17 10 -20 9 -15 -4 4 -10 0 -15 -12 -16 -17 0 -17 -1 1 -8 11 -5 28 -7 38 -5
10 2 17 -3 17 -12 0 -10 8 -14 22 -12 11 2 23 -2 25 -8 3 -8 -9 -9 -39 -3 -24
4 -46 8 -50 9 -11 0 -68 51 -68 60 0 10 36 16 107 19 45 1 54 -2 64 -21z
m1774 2 c-3 -5 -12 -10 -18 -10 -7 0 -6 4 3 10 19 12 23 12 15 0z m-1431 -8
c3 -5 -1 -9 -9 -9 -8 0 -12 4 -9 9 3 4 7 8 9 8 2 0 6 -4 9 -8z m953 2 c-3 -3
-12 -4 -19 -1 -8 3 -5 6 6 6 11 1 17 -2 13 -5z m293 -25 c0 -11 -23 -7 -32 6
-4 5 -4 13 -1 18 5 9 33 -11 33 -24z m-1137 -16 c-10 -25 -14 -57 -11 -95 4
-51 3 -56 -13 -47 -25 13 -32 42 -24 107 8 68 10 72 40 72 24 0 24 0 8 -37z
m64 22 c0 -8 -4 -12 -9 -9 -5 3 -6 10 -3 15 9 13 12 11 12 -6z m37 1 c20 8 63
-13 63 -30 0 -21 -13 -20 -26 2 -6 9 -11 11 -11 5 0 -18 -20 -16 -20 2 0 9 -6
12 -15 9 -10 -4 -15 0 -14 12 0 11 3 14 5 7 3 -7 11 -10 18 -7z m334 -26 c2
-14 12 -34 22 -45 18 -19 24 -37 21 -62 -1 -13 -49 -31 -73 -26 -20 5 -32 33
-19 46 5 5 7 16 4 23 -3 8 0 14 6 14 8 0 9 5 3 16 -5 9 -7 27 -4 40 6 32 36
28 40 -6z m435 23 c-7 -2 -19 -2 -25 0 -7 3 -2 5 12 5 14 0 19 -2 13 -5z
m-837 -18 c-3 -8 0 -15 6 -15 6 0 3 -10 -8 -22 -15 -17 -16 -20 -3 -16 21 8
21 -21 0 -46 -15 -18 -15 -19 1 -13 13 5 15 0 13 -26 -4 -29 -3 -29 10 8 11
34 14 36 16 15 2 -23 2 -23 6 -3 2 12 -1 32 -8 45 -11 21 -11 22 4 9 10 -7 17
-20 17 -28 0 -8 5 -11 10 -8 19 12 10 -14 -16 -44 -32 -38 -51 -39 -65 -4 -12
32 -9 124 3 116 5 -3 9 1 7 8 -2 22 0 39 7 39 3 0 4 -7 0 -15z m331 -68 c-3
-46 -9 -92 -14 -102 -9 -15 -12 -11 -26 24 -20 49 -21 74 -6 104 12 23 39 57
46 57 2 0 2 -38 0 -83z m-751 64 c-8 -12 -66 -32 -66 -22 0 4 12 12 28 18 35
14 44 15 38 4z m1281 3 c-3 -3 -12 -4 -19 -1 -8 3 -5 6 6 6 11 1 17 -2 13 -5z
m273 -16 c0 -19 -2 -20 -10 -8 -13 19 -13 30 0 30 6 0 10 -10 10 -22z m-1040
-15 c0 -3 -7 -3 -15 0 -8 4 -17 2 -19 -2 -3 -5 7 -8 22 -8 15 0 34 -3 42 -6 8
-3 22 -8 30 -11 8 -3 -7 -3 -35 -1 l-50 4 39 -9 c52 -13 57 -20 17 -20 -23 0
-41 9 -62 29 -38 39 -38 53 1 40 17 -6 30 -13 30 -16z m72 8 l20 -20 -20 6
c-11 3 -23 11 -26 19 -7 19 1 18 26 -5z m933 9 c3 -5 1 -10 -4 -10 -6 0 -11 5
-11 10 0 6 2 10 4 10 3 0 8 -4 11 -10z m77 -52 c-5 -22 -13 -13 -27 32 -8 24
-7 25 13 7 13 -12 18 -26 14 -39z m-1517 22 c10 -11 16 -20 13 -20 -3 0 -13 9
-23 20 -10 11 -16 20 -13 20 3 0 13 -9 23 -20z m1087 6 c7 4 8 2 4 -5 -9 -13
-26 -5 -25 12 0 9 2 8 6 -1 2 -6 10 -9 15 -6z m373 -6 c3 -5 2 -10 -4 -10 -5
0 -13 5 -16 10 -3 6 -2 10 4 10 5 0 13 -4 16 -10z m-1208 -107 c34 -12 97 -69
133 -123 63 -92 146 -170 169 -156 5 4 17 29 26 57 12 37 20 47 26 38 5 -8 9
-9 9 -4 0 6 9 11 20 12 21 2 21 1 5 -77 -12 -62 -13 -82 -5 -109 7 -25 5 -30
-16 -39 -17 -8 -25 -8 -30 0 -5 7 -2 8 6 3 10 -6 12 -4 7 9 -4 10 -7 24 -7 32
0 8 -7 14 -15 14 -8 0 -15 -9 -15 -20 0 -18 -3 -19 -20 -10 -16 9 -18 13 -8
24 7 8 16 12 19 10 4 -2 9 7 11 20 6 30 -17 24 -25 -6 -6 -20 -8 -19 -46 12
-23 17 -41 40 -41 50 0 11 -12 34 -27 52 -40 47 -73 96 -73 106 0 15 -60 73
-70 67 -5 -3 -12 0 -16 6 -5 8 -8 8 -13 0 -5 -8 -14 -4 -26 11 -11 13 -13 17
-5 11 23 -21 35 -15 15 7 -10 12 -25 18 -32 15 -8 -2 -11 0 -8 5 3 5 -9 19
-27 30 -39 24 -60 27 -32 4 18 -15 18 -15 -3 -5 -12 6 -32 11 -45 12 -22 0
-22 1 -3 9 l20 9 -20 0 c-11 1 -27 6 -35 12 -12 8 -11 9 5 5 11 -3 37 -7 58
-10 21 -3 49 -14 63 -23 22 -14 27 -14 35 -2 5 8 9 23 10 34 1 11 5 -4 8 -34
4 -30 12 -56 18 -58z m763 70 c-1 -44 -19 -73 -46 -72 -17 1 -17 2 -1 6 9 2
14 9 11 15 -4 6 -2 8 3 5 14 -9 20 10 17 51 -1 17 2 32 7 32 5 0 9 -17 9 -37z
m730 23 c0 -7 -9 -16 -20 -19 -25 -6 -26 8 -2 22 22 13 22 13 22 -3z m-910
-41 c-6 -30 -8 -33 -9 -13 -1 25 8 62 14 56 2 -2 -1 -21 -5 -43z m150 29 c0
-8 -4 -12 -10 -9 -6 3 -10 -4 -10 -17 0 -17 -3 -19 -9 -9 -7 11 -9 11 -14 0
-4 -9 -6 -10 -6 -2 -1 10 36 53 46 53 2 0 3 -7 3 -16z m130 6 c0 -5 -2 -10 -4
-10 -3 0 -8 5 -11 10 -3 6 -1 10 4 10 6 0 11 -4 11 -10z m240 -10 c-6 -11 -15
-18 -20 -15 -4 3 -11 -1 -13 -7 -4 -9 -6 -7 -6 3 -1 12 24 33 47 38 1 1 -2 -8
-8 -19z m34 5 c-4 -8 -10 -15 -15 -15 -4 0 -6 7 -3 15 4 8 10 15 15 15 4 0 6
-7 3 -15z m-1339 -13 c-3 -3 -11 0 -18 7 -9 10 -8 11 6 5 10 -3 15 -9 12 -12z
m1040 -3 c-4 -5 -1 -9 4 -9 6 0 11 -5 11 -11 0 -5 -6 -7 -12 -4 -7 4 -2 -3 12
-14 20 -16 22 -21 8 -21 -10 0 -22 8 -27 18 -12 22 -11 63 1 56 5 -3 6 -10 3
-15z m390 11 c3 -5 2 -10 -4 -10 -5 0 -13 5 -16 10 -3 6 -2 10 4 10 5 0 13 -4
16 -10z m65 -28 c0 -7 -4 -10 -10 -7 -5 3 -10 16 -10 28 0 18 2 19 10 7 5 -8
10 -21 10 -28z m139 -3 c-8 -5 -17 -3 -21 4 -5 7 -8 2 -8 -13 0 -19 -2 -22
-10 -10 -11 18 7 43 26 36 8 -3 13 -2 13 2 -3 18 4 25 8 8 3 -10 -1 -22 -8
-27z m-557 9 c-7 -7 -12 -8 -12 -2 0 6 3 14 7 17 3 4 9 5 12 2 2 -3 -1 -11 -7
-17z m-566 -73 c5 -19 1 -20 -51 -17 -32 2 -62 -1 -68 -7 -16 -16 37 -79 88
-103 l43 -21 -13 -45 c-8 -24 -16 -46 -18 -48 -7 -8 -103 98 -141 155 l-36 53
35 39 c19 22 35 44 35 49 0 6 10 9 23 6 12 -2 36 2 52 8 33 14 29 20 51 -69z
m300 50 c3 -15 17 -53 33 -84 15 -31 33 -77 40 -102 7 -25 24 -58 37 -73 25
-26 41 -35 29 -16 -3 6 1 10 9 10 10 0 13 6 10 15 -4 8 -1 15 6 15 6 0 8 5 4
12 -4 7 -3 8 4 4 6 -4 18 5 26 21 12 21 15 24 16 10 0 -11 -10 -33 -22 -50
-20 -28 -23 -45 -24 -132 -1 -156 -8 -182 -65 -260 -28 -38 -53 -82 -56 -97
-3 -15 -9 -26 -13 -23 -4 2 -5 16 -2 30 2 14 -1 31 -7 38 -8 10 -6 19 5 35 16
24 68 55 77 46 3 -3 5 5 5 18 0 24 8 83 18 131 6 29 -12 124 -28 143 -5 7 -8
16 -7 20 1 5 -3 23 -10 39 -7 17 -19 46 -27 65 l-13 35 4 -49 c3 -27 10 -55
16 -63 7 -7 9 -16 6 -19 -8 -8 -56 90 -72 145 -7 25 -16 55 -20 66 -5 11 -5
17 -1 13 5 -4 19 -35 32 -70 12 -35 23 -56 23 -47 1 8 -10 44 -24 79 -14 35
-25 79 -25 99 0 39 8 37 16 -4z m198 0 c4 -19 19 -48 33 -65 l26 -31 -35 -29
c-19 -15 -47 -47 -63 -69 -33 -49 -40 -45 -70 37 l-21 59 38 22 c42 24 68 58
71 90 2 32 14 25 21 -14z m366 15 c-7 -4 -21 -5 -32 -2 -13 3 -16 7 -8 12 7 4
21 5 32 2 13 -3 16 -7 8 -12z m320 4 c0 -18 -53 -74 -69 -74 -6 0 -11 9 -11
20 0 14 7 20 22 20 12 0 18 3 15 7 -8 7 21 43 35 43 4 0 8 -7 8 -16z m-371
-30 c-29 -16 -39 -17 -39 -4 0 6 7 10 16 10 8 0 13 4 10 9 -4 5 4 7 15 4 21
-6 21 -6 -2 -19z m76 -8 c-13 -20 -26 -26 -54 -26 l-36 0 50 29 c28 16 51 28
53 26 2 -2 -4 -15 -13 -29z m-1394 -30 c1 -17 2 -18 6 -3 2 9 9 17 14 17 13 0
11 -27 -2 -35 -15 -10 -59 34 -59 58 0 19 1 20 20 2 11 -10 21 -28 21 -39z
m44 44 c13 -6 15 -9 5 -9 -8 0 -22 4 -30 9 -18 12 -2 12 25 0z m1495 -15 c0
-8 -4 -17 -10 -20 -6 -3 -9 4 -8 19 2 25 18 26 18 1z m260 4 c0 -16 -4 -19
-20 -14 -13 4 -20 2 -20 -7 -1 -21 -39 -95 -40 -76 0 9 5 20 11 23 6 4 8 13 5
21 -3 8 -1 14 4 14 6 0 10 6 10 14 0 21 27 40 33 24 4 -8 6 -7 6 5 1 24 11 21
11 -4z m170 5 c0 -8 -4 -12 -10 -9 -5 3 -10 1 -10 -4 0 -6 -7 -11 -15 -11 -9
0 -12 -6 -9 -17 5 -14 4 -15 -4 -5 -7 11 -11 8 -16 -12 -4 -15 -11 -24 -16
-21 -4 3 -11 -3 -13 -12 -3 -13 -5 -12 -6 5 -1 25 3 30 57 75 39 31 42 32 42
11z m-398 -26 c-8 -8 -9 -4 -5 13 4 13 8 18 11 10 2 -7 -1 -18 -6 -23z m-1665
0 c2 -17 0 -19 -7 -8 -5 8 -6 18 -4 22 8 12 10 10 11 -14z m201 -3 c-3 -3 -9
2 -12 12 -6 14 -5 15 5 6 7 -7 10 -15 7 -18z m642 6 c0 -13 -7 -18 -25 -18
-13 0 -22 4 -19 9 3 5 12 7 20 4 8 -3 14 1 14 9 0 8 2 15 5 15 3 0 5 -8 5 -19z
m510 9 c0 -5 -5 -10 -11 -10 -5 0 -7 5 -4 10 3 6 8 10 11 10 2 0 4 -4 4 -10z
m-1179 -22 c2 -32 11 -73 20 -89 14 -28 11 -47 -11 -59 -22 -12 -65 4 -55 21
4 5 -1 9 -9 9 -9 0 -16 9 -16 20 0 23 3 24 33 9 20 -10 20 -9 -1 9 -23 18 -23
19 -5 37 10 10 17 21 17 24 -3 12 8 31 17 31 5 0 9 -6 10 -12z m989 2 c8 -5
12 -11 9 -14 -3 -3 -14 1 -25 9 -21 16 -8 20 16 5z m430 0 c0 -14 -38 -32 -45
-20 -3 5 -13 6 -22 3 -11 -4 -14 -3 -9 5 4 7 18 10 32 8 13 -3 24 0 24 5 0 5
5 9 10 9 6 0 10 -4 10 -10z m470 1 c0 -5 -7 -12 -16 -15 -14 -5 -15 -4 -4 9
14 17 20 19 20 6z m-1767 -81 c-13 -37 -14 -101 -3 -134 14 -43 13 -45 -26
-47 -81 -5 -127 19 -160 83 l-16 30 23 -16 c28 -20 69 -21 94 -2 17 12 19 30
13 86 0 8 0 30 0 49 l2 33 39 -33 c24 -21 37 -40 34 -49z m487 63 c0 -14 -2
-15 -9 -5 -6 10 -10 9 -14 -7 -6 -26 -24 -27 -30 -3 -2 10 -3 8 -2 -5 1 -12
-1 -27 -5 -34 -13 -20 -22 28 -10 51 14 26 70 29 70 3z m220 13 c0 -2 -7 -7
-16 -10 -8 -3 -12 -2 -9 4 6 10 25 14 25 6z m890 -9 c0 -16 -20 -37 -34 -37
-6 0 -2 7 8 15 11 8 14 15 7 15 -7 0 -9 5 -6 10 9 14 25 12 25 -3z m-1812 -76
l-1 -33 -18 23 c-10 13 -19 39 -19 58 l0 34 19 -25 c11 -14 19 -39 19 -57z
m762 59 c-8 -5 -24 -9 -35 -9 l-20 0 20 9 c11 5 27 9 35 9 13 1 13 0 0 -9z
m563 3 c-7 -2 -19 -2 -25 0 -7 3 -2 5 12 5 14 0 19 -2 13 -5z m-1670 -34 c31
-36 37 -59 7 -29 -11 11 -20 24 -20 30 0 5 -8 14 -17 19 -10 6 -13 11 -8 11 6
0 23 -14 38 -31z m-42 4 c13 -16 12 -17 -3 -4 -10 7 -18 15 -18 17 0 8 8 3 21
-13z m879 5 c0 -5 8 -7 19 -3 12 4 21 0 25 -12 6 -15 8 -15 17 -3 8 13 12 12
24 -4 21 -28 19 -42 -3 -23 -10 10 -22 14 -26 10 -4 -4 -12 0 -17 10 -6 9 -15
15 -20 11 -5 -3 -15 -1 -22 4 -7 5 -27 9 -44 7 -18 -1 -33 1 -33 6 0 5 18 8
40 7 22 -1 40 -5 40 -10z m1008 -13 c10 -9 -26 -117 -52 -153 -51 -72 -100
-125 -104 -113 -7 21 -65 43 -127 48 -51 4 -63 2 -68 -11 -9 -23 7 -60 42 -92
l30 -29 -45 -50 c-43 -48 -44 -49 -44 -22 0 58 -63 157 -100 157 -22 0 -28 15
-25 59 3 36 35 81 35 49 0 -25 40 -88 56 -88 22 0 34 44 34 125 l0 74 37 26
c21 14 43 25 49 25 10 0 -1 -42 -33 -120 -17 -42 12 -90 54 -90 34 0 76 48 70
80 -14 67 -27 105 -41 116 -25 18 -19 24 22 24 36 0 38 -2 39 -32 0 -27 10
-163 12 -177 1 -2 19 16 41 40 47 51 55 74 47 134 l-6 43 37 -10 c20 -6 38
-11 40 -13z m38 13 c-3 -7 -7 -33 -10 -58 -5 -32 -3 -41 4 -30 8 12 10 11 10
-8 0 -34 -154 -221 -184 -222 -5 0 7 15 25 33 32 30 93 115 117 162 5 11 13
46 17 78 4 31 11 57 16 57 5 0 7 -6 5 -12z m-775 -18 c-13 -11 -28 -20 -35
-19 -7 0 -7 2 2 6 24 9 12 19 -19 15 -18 -3 -29 -1 -26 4 3 5 27 10 54 11 l48
3 -24 -20z m-927 1 c3 -4 -8 -8 -25 -9 -16 0 -27 3 -25 6 6 11 45 12 50 3z
m414 -8 c-1 -10 1 -24 5 -30 5 -7 4 -13 -2 -13 -5 0 -11 6 -14 13 -4 13 3 47
10 47 2 0 3 -8 1 -17z m1542 13 c0 -11 -19 -15 -25 -6 -3 5 1 10 9 10 9 0 16
-2 16 -4z m80 -6 c0 -5 -5 -10 -11 -10 -5 0 -7 5 -4 10 3 6 8 10 11 10 2 0 4
-4 4 -10z m70 6 c0 -2 -9 -6 -20 -9 -11 -3 -18 -1 -14 4 5 9 34 13 34 5z
m-2042 -21 c27 -9 30 -25 2 -18 -11 3 -20 10 -20 15 0 6 -7 5 -15 -2 -12 -10
-13 -15 -3 -21 6 -4 16 -5 22 -2 5 3 6 1 2 -5 -5 -8 1 -12 16 -13 13 0 17 -3
11 -6 -20 -7 -84 17 -76 30 4 6 0 8 -10 4 -9 -3 -19 -2 -22 3 -4 6 5 10 19 10
14 0 26 4 26 9 0 9 7 9 48 -4z m579 9 c13 -4 20 -10 17 -15 -3 -5 6 -9 20 -9
14 0 28 -4 31 -10 4 -6 -7 -10 -25 -10 -18 0 -33 6 -36 15 -4 8 -9 13 -13 11
-3 -2 -15 2 -26 10 -21 15 -8 18 32 8z m-842 -14 c3 -6 -1 -7 -9 -4 -18 7 -21
14 -7 14 6 0 13 -4 16 -10z m648 -23 c-4 -18 -3 -19 6 -7 9 12 10 9 5 -14 -5
-22 -4 -27 6 -21 9 6 10 3 1 -13 -6 -11 -8 -27 -6 -35 3 -7 -2 -20 -12 -28
-16 -12 -17 -12 -7 1 13 16 11 66 -5 117 -7 25 -6 31 4 27 7 -3 11 -15 8 -27z
m1087 12 c0 -5 -8 -9 -17 -8 -11 0 -13 3 -5 6 6 2 9 10 6 15 -4 7 -2 8 4 4 7
-4 12 -11 12 -17z m40 -12 c0 -20 -10 -47 -25 -67 -24 -32 -25 -33 -23 -10 1
14 -2 35 -6 48 -5 13 -3 22 3 22 6 0 10 -3 10 -7 -4 -22 2 -43 12 -43 7 0 9
10 5 24 -3 14 -2 28 4 31 5 3 10 11 10 16 0 6 -5 7 -12 3 -7 -4 -8 -3 -4 4 14
22 26 12 26 -21z m-599 -36 l27 -58 -46 13 c-63 20 -132 19 -132 -1 0 -29 29
-74 67 -102 31 -24 46 -28 100 -28 63 0 63 0 69 -31 3 -17 1 -49 -5 -70 -13
-50 -100 -186 -114 -181 -6 2 -28 37 -49 78 -21 41 -49 87 -63 103 -14 16 -25
33 -25 38 0 5 -7 16 -15 24 -18 18 -19 73 -4 144 6 29 12 59 13 68 2 12 20 20
60 28 32 6 63 17 69 23 17 17 20 14 48 -48z m288 28 c8 -22 7 -29 -1 -27 -6 2
-12 16 -14 31 -4 35 2 34 15 -4z m166 4 c3 -16 10 -41 15 -56 7 -22 4 -33 -14
-54 -20 -23 -24 -24 -44 -12 -27 17 -28 43 -3 68 11 11 15 21 10 23 -12 4 9
58 22 58 5 0 11 -12 14 -27z m-1005 -42 c0 -11 -6 -9 -20 7 -11 12 -20 26 -20
31 0 6 9 3 20 -6 11 -10 20 -24 20 -32z m1672 0 c15 -18 15 -21 3 -21 -8 0
-15 7 -15 15 0 10 -10 15 -27 15 -22 0 -25 2 -13 10 13 8 12 10 -2 10 -10 0
-18 5 -18 10 0 14 51 -13 72 -39z m-1346 32 c-10 -11 -37 -12 -30 -2 3 5 12 9
21 9 9 0 13 -3 9 -7z m1049 -29 c-38 -8 -74 -12 -80 -10 -18 6 59 24 105 24
41 0 40 -1 -25 -14z m-1403 -39 c-6 -30 -6 -30 -12 -5 -8 29 -1 55 11 43 4 -4
5 -21 1 -38z m878 10 c0 -25 -14 -33 -25 -15 -3 6 -1 10 6 10 8 0 8 4 -1 15
-10 12 -10 15 4 15 10 0 16 -9 16 -25z m-40 11 c0 -3 -4 -8 -10 -11 -5 -3 -10
-1 -10 4 0 6 5 11 10 11 6 0 10 -2 10 -4z m823 -16 c3 -11 1 -18 -4 -14 -5 3
-9 12 -9 20 0 20 7 17 13 -6z m-1633 0 c0 -5 -2 -10 -4 -10 -3 0 -8 5 -11 10
-3 6 -1 10 4 10 6 0 11 -4 11 -10z m-204 -65 c25 -19 14 -19 -35 1 -36 14 -38
17 -27 39 l11 23 16 -24 c8 -13 24 -31 35 -39z m1884 55 c13 7 21 6 29 -4 14
-17 1 -28 -19 -16 -7 4 -19 6 -27 3 -8 -3 -13 2 -12 13 0 11 3 14 6 7 3 -9 10
-10 23 -3z m-2020 -20 c30 -17 31 -19 9 -14 -15 3 -44 12 -65 19 -38 14 -38
14 -9 14 17 0 46 -9 65 -19z m430 4 c0 -8 -5 -12 -10 -9 -6 4 -8 11 -5 16 9
14 15 11 15 -7z m37 -38 c-3 -8 -1 -18 5 -24 6 -6 6 -12 0 -16 -11 -7 -26 40
-17 54 4 6 1 10 -4 10 -6 0 -11 8 -11 17 0 14 3 13 16 -5 9 -13 13 -29 11 -36z
m323 44 c0 -5 -2 -10 -4 -10 -3 0 -8 5 -11 10 -3 6 -1 10 4 10 6 0 11 -4 11
-10z m30 0 c0 -5 7 -7 15 -3 9 3 22 -2 30 -13 24 -31 17 -39 -12 -13 -14 13
-23 18 -19 12 12 -21 -8 -14 -22 7 -7 12 -8 20 -2 20 5 0 10 -4 10 -10z m1024
-61 c29 -56 32 -79 14 -97 -18 -18 -75 -15 -98 5 -20 18 -27 43 -12 43 5 0 8
10 8 22 -1 15 7 24 24 28 25 7 25 7 -4 11 -28 4 -29 5 -12 22 12 12 14 17 4
18 -7 0 -4 4 7 8 26 11 37 1 69 -60z m-944 36 c7 -8 16 -13 20 -10 5 3 11 2
14 -3 2 -4 -5 -9 -18 -10 -12 -1 -27 7 -34 18 -14 23 0 27 18 5z m282 -20 c-3
-20 -7 -23 -18 -14 -8 6 -14 17 -14 23 0 6 5 4 10 -4 8 -12 10 -10 10 8 0 13
4 21 9 18 4 -3 6 -17 3 -31z m-1469 18 c-7 -2 -21 -2 -30 0 -10 3 -4 5 12 5
17 0 24 -2 18 -5z m33 -29 c-25 -18 -31 -12 -16 16 9 17 15 19 23 10 9 -9 7
-15 -7 -26z m1051 30 c-3 -3 -12 -4 -19 -1 -8 3 -5 6 6 6 11 1 17 -2 13 -5z
m-752 -36 c48 -18 58 -29 41 -42 -9 -6 -17 -22 -19 -36 -1 -14 -11 -40 -21
-58 -9 -19 -15 -40 -12 -48 7 -19 -1 -18 -30 5 -14 11 -53 29 -88 41 -35 11
-71 27 -81 34 -17 12 -16 14 18 25 44 15 97 65 97 91 0 16 4 17 33 9 17 -5 46
-14 62 -21z m390 -15 c0 -23 -4 -39 -8 -36 -5 3 -6 11 -3 19 3 7 1 16 -4 19
-12 8 -8 46 5 42 5 -2 10 -22 10 -44z m-550 27 c-3 -5 -16 -10 -28 -9 -20 1
-20 2 3 9 14 4 26 8 28 9 2 1 0 -3 -3 -9z m959 -5 c8 -8 22 -12 30 -9 9 3 16
1 16 -6 0 -7 8 -9 20 -5 11 3 28 1 37 -5 17 -11 17 -11 0 -6 -11 3 -24 3 -30
-1 -19 -12 -38 -12 -31 -1 4 5 -4 9 -17 8 -13 -1 -31 -2 -39 -1 -13 1 -13 2 0
11 12 8 11 10 -7 10 -12 0 -25 5 -28 10 -10 16 32 12 49 -5z m1326 11 c0 -2
-8 -10 -17 -17 -16 -13 -17 -12 -4 4 13 16 21 21 21 13z m-2466 -20 c-6 -15
-34 -31 -34 -19 0 5 30 32 37 33 1 0 0 -6 -3 -14z m455 -12 c14 -12 -39 -1
-55 11 -17 13 -16 14 16 3 19 -6 37 -13 39 -14z m231 16 c0 -5 -7 -10 -15 -10
-8 0 -15 5 -15 10 0 6 7 10 15 10 8 0 15 -4 15 -10z m1173 -5 c-3 -9 -8 -14
-10 -11 -3 3 -2 9 2 15 9 16 15 13 8 -4z m565 4 c-2 -6 -8 -11 -13 -11 -6 0
-16 -5 -24 -11 -11 -10 -13 -9 -9 3 3 8 13 14 22 14 9 -1 16 2 16 7 0 5 3 9 6
9 3 0 4 -5 2 -11z m-2494 -11 c-5 -8 -1 -9 12 -5 19 7 19 7 0 -8 -11 -8 -22
-13 -24 -10 -6 5 5 35 13 35 4 0 3 -5 -1 -12z m199 -6 c-13 -2 -23 -9 -23 -15
0 -7 -9 -18 -21 -25 -18 -12 -17 -9 6 22 19 25 31 33 43 28 14 -6 13 -7 -5
-10z m517 2 c0 -2 -17 -4 -37 -3 -33 1 -35 2 -13 8 23 7 50 4 50 -5z m-458
-16 c-7 -7 -12 -8 -12 -2 0 14 12 26 19 19 2 -3 -1 -11 -7 -17z m354 3 c32 -4
42 -9 29 -12 -26 -7 -105 9 -105 21 0 5 6 7 14 4 8 -3 36 -9 62 -13z m-380
-17 c-4 -9 -9 -15 -11 -12 -3 3 -3 13 1 22 4 9 9 15 11 12 3 -3 3 -13 -1 -22z
m2299 16 c-3 -5 -14 -10 -23 -10 -15 0 -15 2 -2 10 20 13 33 13 25 0z m-1620
-30 c4 -6 -5 -5 -19 2 -14 6 -26 15 -26 20 0 10 36 -7 45 -22z m-344 4 c41 -7
50 -23 24 -44 -8 -7 -19 -26 -23 -42 l-7 -30 -23 49 c-13 26 -28 57 -34 67 -8
16 -7 18 7 12 9 -3 34 -9 56 -12z m271 -6 c-7 -7 -12 -8 -12 -2 0 14 12 26 19
19 2 -3 -1 -11 -7 -17z m793 12 c-3 -5 -1 -10 6 -10 7 0 10 -3 6 -6 -9 -9 -28
6 -22 17 4 5 8 9 11 9 3 0 2 -4 -1 -10z m73 -3 c8 -6 12 -5 12 3 0 10 3 10 15
0 8 -7 15 -17 15 -22 0 -6 -6 -6 -14 1 -11 9 -15 9 -18 0 -3 -8 -9 -7 -20 5
-10 10 -18 12 -20 5 -2 -7 -9 -5 -17 4 -11 14 -9 16 11 15 13 -1 29 -6 36 -11z
m-932 -19 c3 -13 14 -34 23 -48 9 -14 22 -38 29 -53 12 -27 11 -28 -10 -21
-34 11 -70 12 -95 3 -22 -8 -23 -7 -20 59 1 37 7 70 12 74 21 16 54 8 61 -14z
m1274 12 c0 -5 -5 -10 -11 -10 -5 0 -7 5 -4 10 3 6 8 10 11 10 2 0 4 -4 4 -10z
m-1549 -27 c5 -16 16 -41 23 -57 15 -31 11 -62 -8 -69 -20 -8 -79 7 -84 21 -2
7 7 13 25 13 l28 2 -27 4 c-16 2 -28 6 -28 8 0 15 15 35 25 35 8 0 17 5 21 12
4 7 3 8 -5 4 -8 -5 -11 2 -9 23 3 39 25 40 39 4z m869 -90 c-11 -17 -11 -17
-6 0 3 10 7 42 8 70 l2 52 3 -52 c2 -29 -1 -61 -7 -70z m404 101 c3 -8 2 -12
-4 -9 -6 3 -10 10 -10 16 0 14 7 11 14 -7z m-833 -36 l45 -31 -35 -53 -35 -54
-18 33 c-9 18 -23 39 -31 45 -11 9 -11 21 -3 56 6 25 15 42 21 39 5 -3 31 -19
56 -35z m-263 -19 c2 -48 -1 -54 -34 -86 -20 -19 -41 -32 -47 -30 -15 5 -21
27 -7 27 6 0 8 -6 5 -12 -4 -7 0 -5 9 6 8 10 20 15 27 10 9 -5 11 -1 7 14 -6
23 7 31 16 10 3 -7 3 -1 0 14 -5 21 11 98 20 98 1 0 3 -23 4 -51z m169 29 c-3
-8 -6 -5 -6 6 -1 11 2 17 5 13 3 -3 4 -12 1 -19z m826 15 c-7 -2 -19 -2 -25 0
-7 3 -2 5 12 5 14 0 19 -2 13 -5z m267 3 c0 -3 -4 -8 -10 -11 -5 -3 -10 -1
-10 4 0 6 5 11 10 11 6 0 10 -2 10 -4z m-186 -19 c4 4 4 0 0 -10 -3 -9 -14
-17 -23 -17 -14 0 -14 2 -1 11 12 8 8 10 -15 8 -49 -2 -62 3 -25 10 19 4 40 3
46 -1 6 -4 14 -5 18 -1z m226 2 c-11 -8 -8 -9 15 -5 24 5 26 4 13 -4 -21 -13
-77 -2 -56 11 7 5 20 9 28 9 13 0 13 -1 0 -11z m-466 -14 c3 -8 1 -15 -3 -15
-5 0 -11 7 -15 15 -3 8 -1 15 3 15 5 0 11 -7 15 -15z m-35 -24 c-5 -1 -2 -9 8
-17 17 -13 17 -14 -2 -8 -18 5 -18 3 3 -12 12 -9 22 -21 22 -26 0 -5 -10 -8
-22 -6 -19 2 -23 9 -22 38 3 65 3 67 14 50 6 -10 6 -16 -1 -19z m471 -3 c0
-11 -38 3 -43 17 -4 10 0 10 19 1 13 -6 24 -14 24 -18z m-1324 7 c-11 -8 -22
-12 -25 -9 -6 6 19 24 34 24 6 -1 1 -7 -9 -15z m1262 -13 c26 -24 30 -36 29
-70 -3 -51 -12 -60 -78 -82 l-53 -18 -19 24 c-10 13 -25 24 -33 24 -8 0 -14 2
-14 4 0 2 -3 11 -6 19 -4 11 17 33 68 71 40 30 74 55 74 55 1 1 16 -12 32 -27z
m-842 -4 c4 -8 3 -9 -2 -5 -5 5 -14 -7 -20 -25 -12 -30 -13 -31 -13 -7 -1 14
4 30 11 37 15 15 15 15 24 0z m939 2 c3 -5 -1 -10 -9 -10 -9 0 -16 5 -16 10 0
6 4 10 9 10 6 0 13 -4 16 -10z m-1368 -17 c-9 -9 -20 -13 -24 -9 -4 4 -1 11 7
16 25 16 35 11 17 -7z m926 -13 c-3 -11 -9 -20 -14 -20 -10 0 -11 12 -3 34 9
22 23 10 17 -14z m138 -7 c-21 -21 -47 -51 -57 -68 l-18 -30 26 23 c20 18 28
21 34 10 4 -7 4 -10 -1 -6 -9 9 -35 -9 -35 -24 0 -6 7 -4 16 3 12 9 10 3 -5
-21 -32 -53 -28 -71 12 -65 26 4 22 0 -26 -24 -71 -36 -77 -41 -100 -83 -18
-32 -18 -32 17 7 19 22 35 35 36 30 0 -6 -21 -31 -46 -55 -26 -25 -43 -38 -39
-30 8 13 7 13 -8 1 -19 -15 -24 -36 -6 -26 6 4 -11 -21 -36 -56 -62 -84 -70
-105 -82 -209 -8 -67 -8 -135 0 -175 16 -87 17 -123 3 -134 -25 -21 -11 -212
19 -279 32 -71 9 -63 -27 9 -19 38 -26 45 -21 24 3 -16 12 -43 20 -60 13 -27
13 -28 -2 -11 -8 11 -15 25 -15 30 0 6 -5 4 -10 -4 -9 -13 -10 -13 -12 0 -3
29 -5 66 -6 153 -1 49 -6 86 -10 83 -5 -3 -8 -23 -7 -45 1 -26 -3 -42 -12 -45
-15 -6 -18 -26 -2 -26 5 0 7 5 3 12 -4 6 -3 8 3 5 5 -4 10 -21 11 -39 0 -21
-2 -27 -8 -19 -5 9 -11 -2 -18 -35 -6 -27 -8 -52 -6 -56 3 -4 -2 -8 -11 -8 -8
0 -18 -7 -22 -16 -9 -24 -24 6 -17 37 6 30 15 180 9 159 -2 -8 -7 -37 -11 -65
-5 -39 -8 -46 -15 -30 -6 17 -8 17 -8 3 -1 -10 -5 -18 -11 -18 -13 0 -13 6 5
64 8 27 15 62 15 78 0 15 5 28 10 28 6 0 10 -6 10 -12 0 -9 4 -8 10 2 7 11 10
5 11 -25 2 -39 2 -38 8 10 3 28 2 53 -3 56 -5 4 -5 12 -1 19 14 23 16 110 2
110 -8 0 -7 4 3 10 8 5 11 10 5 10 -5 0 -3 5 5 10 8 5 10 10 4 10 -7 0 -10 15
-8 40 5 54 -2 50 -15 -7 -14 -59 -19 -78 -21 -78 0 0 -3 -24 -6 -54 -2 -30 -7
-57 -9 -60 -11 -11 -4 99 10 145 7 27 15 72 16 101 2 29 6 50 11 47 5 -3 6
-10 3 -15 -4 -5 -1 -9 4 -9 7 0 9 23 6 63 l-4 62 14 -70 14 -70 -5 64 c-2 35
-4 75 -4 88 0 15 -4 22 -11 17 -8 -4 -8 0 0 14 13 25 4 99 -14 122 -6 8 -15
22 -19 30 -5 10 -3 10 6 -2 21 -25 33 -9 33 47 1 63 10 134 20 143 4 4 5 -12
2 -35 -3 -28 0 -41 7 -40 6 1 13 -21 16 -55 6 -67 21 -89 41 -61 8 10 43 43
79 72 86 70 103 90 156 193 25 48 61 101 80 118 50 43 62 37 15 -7z m699 23
c0 -2 -9 -6 -20 -9 -11 -3 -18 -1 -14 4 5 9 34 13 34 5z m-2022 -36 c57 -41
53 -46 -8 -9 -27 17 -50 33 -50 35 0 11 21 1 58 -26z m640 0 c-1 -35 -18 -41
-18 -7 0 21 7 37 16 37 1 0 2 -13 2 -30z m167 -79 c15 -31 34 -64 43 -74 8 -9
13 -19 10 -22 -14 -14 -128 151 -128 185 l1 25 24 -29 c13 -16 36 -54 50 -85z
m1231 94 c-10 -8 -24 -11 -30 -8 -6 4 0 10 14 14 36 10 37 10 16 -6z m-2248
-44 c-1 -9 1 -22 5 -28 5 -8 3 -13 -4 -13 -8 0 -7 -5 2 -17 13 -16 12 -17 -4
-4 -9 8 -15 16 -12 19 3 3 0 11 -6 19 -9 10 -8 13 1 13 10 0 9 4 -1 16 -7 9
-14 23 -15 31 -2 12 1 11 17 -3 11 -10 18 -25 17 -33z m22 45 c0 -3 -4 -8 -10
-11 -5 -3 -10 -1 -10 4 0 6 5 11 10 11 6 0 10 -2 10 -4z m440 -16 c-8 -5 -18
-6 -24 -3 -5 4 -1 10 10 13 24 9 34 2 14 -10z m460 10 c0 -5 -2 -10 -4 -10 -3
0 -8 5 -11 10 -3 6 -1 10 4 10 6 0 11 -4 11 -10z m905 0 c3 -5 1 -10 -4 -10
-6 0 -11 5 -11 10 0 6 2 10 4 10 3 0 8 -4 11 -10z m50 -10 c-10 -11 -25 -20
-34 -20 -10 0 -4 8 14 19 39 25 42 25 20 1z m206 2 c-5 -9 -19 -26 -32 -37
-26 -23 -17 -2 14 33 25 27 31 28 18 4z m-2314 -7 c0 -8 -4 -12 -9 -9 -5 3 -6
10 -3 15 9 13 12 11 12 -6z m1638 -15 c-4 -12 -9 -19 -12 -17 -3 3 -2 15 2 27
4 12 9 19 12 17 3 -3 2 -15 -2 -27z m392 -11 c-15 -23 -16 -20 -10 14 4 19 8
25 13 16 5 -7 3 -20 -3 -30z m393 26 c4 3 13 -2 20 -10 9 -10 9 -15 1 -15 -6
0 -11 5 -11 10 0 6 -5 9 -11 8 -6 -2 -13 3 -14 10 -2 7 -1 8 2 2 2 -5 8 -8 13
-5z m104 6 c8 -12 -28 -21 -44 -11 -9 6 -8 9 6 13 30 8 33 7 38 -2z m-2497
-23 c-3 -8 -6 -5 -6 6 -1 11 2 17 5 13 3 -3 4 -12 1 -19z m251 -27 c-2 -8 -10
-16 -18 -19 -12 -4 -13 -2 -2 9 14 15 16 30 3 27 -9 -3 -11 2 -11 25 0 6 7 3
16 -8 8 -11 13 -26 12 -34z m366 -30 c-6 -6 -94 21 -100 31 -3 5 6 7 21 4 19
-4 33 2 48 17 l22 22 6 -35 c4 -19 5 -37 3 -39z m802 42 c-8 -16 -22 -35 -30
-43 -14 -11 -15 -10 -3 11 35 65 65 94 33 32z m-1386 1 c0 -8 -4 -14 -10 -14
-5 0 -10 9 -10 21 0 11 5 17 10 14 6 -3 10 -13 10 -21z m868 2 c26 -26 4 -31
-24 -5 -26 24 -26 24 -15 2 16 -31 -9 -32 -27 -2 -7 12 -16 18 -19 15 -3 -3 0
-12 7 -21 7 -8 9 -15 5 -15 -11 0 -45 31 -45 41 0 14 102 2 118 -15z m124 -1
c3 -14 1 -25 -3 -25 -5 0 -9 11 -9 25 0 14 2 25 4 25 2 0 6 -11 8 -25z m86 13
c-5 -13 -38 -20 -38 -8 0 8 17 18 33 19 5 1 7 -4 5 -11z m-328 -22 c14 -18 14
-19 -5 -9 -11 6 -27 8 -35 6 -8 -3 -6 1 5 10 11 8 20 15 20 14 1 -1 7 -11 15
-21z m785 14 c4 -6 -5 -10 -19 -10 -14 0 -26 5 -26 10 0 6 9 10 19 10 11 0 23
-4 26 -10z m654 -8 c-8 -13 -20 -17 -43 -13 l-31 5 33 7 c18 4 36 9 39 13 12
12 13 6 2 -12z m126 8 c3 -5 2 -10 -4 -10 -5 0 -13 5 -16 10 -3 6 -2 10 4 10
5 0 13 -4 16 -10z m111 -17 c-7 -7 -26 7 -26 19 0 6 6 6 15 -2 9 -7 13 -15 11
-17z m-2471 7 c3 -5 1 -10 -4 -10 -6 0 -11 5 -11 10 0 6 2 10 4 10 3 0 8 -4
11 -10z m1233 -107 c19 -24 30 -43 26 -43 -5 0 -19 16 -32 36 -13 20 -26 33
-29 30 -3 -3 0 -13 8 -22 13 -16 12 -16 -9 -3 -21 13 -33 35 -37 69 -2 8 -6
24 -10 35 -4 11 5 2 21 -20 15 -22 43 -59 62 -82z m1087 96 c-5 -15 -4 -19 4
-15 6 4 11 3 11 -3 0 -5 -5 -13 -11 -17 -8 -4 -7 -9 2 -15 11 -6 11 -11 1 -21
-9 -9 -12 -9 -13 3 -1 7 -3 25 -4 39 -3 25 3 50 12 50 2 0 1 -10 -2 -21z
m-2245 -10 c0 -11 -4 -17 -10 -14 -5 3 -10 13 -10 21 0 8 5 14 10 14 6 0 10
-9 10 -21z m445 -11 c40 -21 86 -30 162 -33 84 -4 189 -32 232 -61 44 -30 61
-30 61 -1 0 19 3 18 16 -10 18 -36 78 -78 166 -117 71 -31 108 -66 108 -103 0
-22 2 -25 10 -13 8 11 10 3 9 -30 -2 -47 -15 -74 -30 -64 -15 9 -10 24 9 25 9
0 12 3 5 5 -7 3 -9 12 -6 21 5 12 3 14 -6 8 -10 -6 -11 -2 -6 15 5 15 4 20 -4
16 -6 -4 -31 9 -56 30 -25 20 -48 34 -51 32 -3 -3 9 -16 25 -28 17 -12 31 -26
31 -33 0 -6 -16 4 -35 23 -19 18 -32 37 -29 41 7 12 -81 76 -132 95 -25 9 -41
21 -38 28 3 6 -2 2 -11 -9 -14 -17 -17 -18 -25 -5 -5 8 -10 10 -10 4 0 -9
-116 -38 -160 -39 -8 -1 -21 -4 -28 -9 -7 -4 -16 -5 -19 -2 -10 9 3 17 28 18
13 0 38 4 54 8 17 5 43 11 58 15 25 5 27 8 15 22 -11 14 -11 16 2 9 8 -4 4 2
-9 13 -16 15 -37 21 -67 21 -54 0 -47 -1 -113 21 -64 23 -105 23 -146 3 -16
-8 -21 -12 -10 -8 11 3 36 8 55 10 20 3 7 -4 -30 -15 -36 -11 -75 -23 -87 -26
-13 -4 -23 -3 -23 2 0 7 -18 7 -51 1 -28 -5 -54 -7 -57 -4 -3 3 4 6 15 6 11 0
48 18 82 40 34 22 66 40 71 40 15 0 12 26 -5 40 -8 7 -15 18 -15 24 0 8 2 8 8
0 4 -6 21 -18 37 -26z m1034 -24 c11 -12 27 -26 37 -32 17 -9 17 -11 -1 -38
-21 -33 -46 -57 -127 -120 -31 -24 -59 -50 -61 -56 -3 -7 -6 15 -6 50 -1 69
14 109 68 175 16 21 33 48 37 60 6 20 7 20 21 1 7 -10 22 -29 32 -40z m961 46
c8 -5 11 -10 5 -10 -5 0 -17 5 -25 10 -8 5 -10 10 -5 10 6 0 17 -5 25 -10z
m-1808 -32 c-4 -3 -20 -4 -36 -1 l-29 6 29 12 c21 8 31 9 36 1 4 -6 4 -14 0
-18z m305 0 c-3 -7 -5 -2 -5 12 0 14 2 19 5 13 2 -7 2 -19 0 -25z m93 23 c0
-12 -39 -21 -45 -11 -3 5 3 11 12 13 29 8 33 7 33 -2z m500 -21 c0 -13 -7 -13
-31 1 -11 5 -17 14 -14 20 7 11 45 -7 45 -21z m25 20 c3 -5 1 -10 -4 -10 -6 0
-11 5 -11 10 0 6 2 10 4 10 3 0 8 -4 11 -10z m452 -4 c-20 -8 -44 -19 -52 -26
-18 -15 -20 -50 -2 -50 6 -1 37 -23 67 -51 30 -28 46 -47 36 -43 -14 5 -17 4
-12 -4 4 -7 13 -12 20 -12 7 0 21 -7 32 -15 17 -13 16 -14 -14 -4 -31 11 -47
25 -47 43 0 5 -15 17 -33 26 -18 10 -47 30 -65 44 -17 14 -39 26 -48 26 -33 0
-28 17 9 36 59 30 95 42 122 43 20 0 18 -3 -13 -13z m278 4 c3 -5 1 -10 -4
-10 -6 0 -11 5 -11 10 0 6 2 10 4 10 3 0 8 -4 11 -10z m74 -6 c3 -3 -37 -44
-43 -44 -1 0 -1 14 -1 30 -1 26 2 29 20 24 11 -4 22 -8 24 -10z m-2401 -12 c3
-9 -2 -13 -14 -10 -9 1 -19 9 -22 16 -3 9 2 13 14 10 9 -1 19 -9 22 -16z m80
-18 c-10 -10 -28 6 -28 24 0 15 1 15 17 -1 9 -9 14 -19 11 -23z m649 30 c-3
-3 -12 -4 -19 -1 -8 3 -5 6 6 6 11 1 17 -2 13 -5z m988 -24 c-9 -10 -15 -26
-12 -34 3 -8 -2 -16 -14 -19 -16 -4 -17 -2 -7 16 22 42 41 68 46 62 3 -3 -3
-14 -13 -25z m-1487 -21 c-18 -12 -23 8 -6 28 12 15 13 15 16 -2 2 -10 -2 -21
-10 -26z m547 31 c-3 -5 -16 -10 -28 -10 -18 0 -19 2 -7 10 20 13 43 13 35 0z
m40 -10 c-3 -5 -14 -10 -23 -10 -15 0 -15 2 -2 10 20 13 33 13 25 0z m289 -24
c8 -18 30 -46 49 -60 34 -26 52 -61 63 -120 4 -26 -9 -36 -21 -16 -4 6 -44 28
-88 49 -83 39 -131 76 -140 111 -4 15 2 20 34 25 21 4 49 15 61 26 13 10 24
18 25 19 2 0 9 -15 17 -34z m1084 17 c-22 -25 -34 -63 -37 -111 -1 -23 -1 -23
-31 -5 -17 9 -49 36 -71 59 l-41 42 53 11 c30 5 63 12 74 14 11 3 31 5 44 6
22 1 23 0 9 -16z m-2159 -2 c9 -6 10 -10 2 -16 -16 -9 -44 2 -36 15 8 12 16
12 34 1z m889 -40 l-3 -32 -32 23 -31 24 26 15 c33 20 44 11 40 -30z m105 42
c-7 -2 -19 -2 -25 0 -7 3 -2 5 12 5 14 0 19 -2 13 -5z m771 -35 c32 -47 39
-95 15 -111 -18 -11 -73 -1 -64 12 3 5 -1 11 -7 14 -10 3 -10 7 1 20 8 11 9
17 3 17 -17 0 -3 28 16 33 13 4 12 5 -4 6 -22 1 -29 31 -10 43 17 12 19 10 50
-34z m626 27 c-7 -9 -15 -13 -17 -11 -7 7 7 26 19 26 6 0 6 -6 -2 -15z m148
-10 c-6 -14 -13 -23 -16 -20 -3 2 -11 -3 -18 -13 -13 -16 -13 -16 -14 1 0 10
8 21 18 24 9 4 21 12 25 20 14 22 17 14 5 -12z m-314 -4 c3 -5 -1 -11 -9 -14
-9 -4 -12 -1 -8 9 6 16 10 17 17 5z m63 -13 c-3 -8 -6 -5 -6 6 -1 11 2 17 5
13 3 -3 4 -12 1 -19z m70 0 c-3 -8 -6 -5 -6 6 -1 11 2 17 5 13 3 -3 4 -12 1
-19z m68 12 c-3 -5 -10 -10 -16 -10 -5 0 -9 5 -9 10 0 6 7 10 16 10 8 0 12 -4
9 -10z m-248 -22 c-3 -8 -6 -5 -6 6 -1 11 2 17 5 13 3 -3 4 -12 1 -19z m-906
-20 c-5 -13 -12 -53 -16 -88 -4 -36 -9 -67 -12 -70 -12 -11 5 147 17 167 18
28 23 23 11 -9z m892 2 c3 -11 1 -20 -4 -20 -5 0 -9 9 -9 20 0 11 2 20 4 20 2
0 6 -9 9 -20z m174 -2 c-3 -8 -6 -5 -6 6 -1 11 2 17 5 13 3 -3 4 -12 1 -19z
m57 5 c-10 -7 -22 -13 -27 -13 -5 0 -4 6 2 13 6 8 18 14 27 14 15 0 14 -2 -2
-14z m-184 -8 c-7 -8 -16 -15 -21 -15 -5 0 -6 7 -3 15 4 8 13 15 21 15 13 0
13 -3 3 -15z m263 0 c-3 -9 -8 -14 -10 -11 -3 3 -2 9 2 15 9 16 15 13 8 -4z
m-199 -37 c6 -4 -5 -14 -26 -23 -55 -22 -63 -19 -34 16 14 17 26 36 26 42 0 7
6 3 12 -8 6 -11 16 -23 22 -27z m162 15 c-10 -10 -19 5 -10 18 6 11 8 11 12 0
2 -7 1 -15 -2 -18z m-1806 -12 c36 -10 75 -17 88 -15 12 2 22 2 22 0 0 -4
-139 -51 -153 -51 -4 0 -19 19 -33 43 -30 50 -25 52 76 23z m-273 -7 c-3 -3
-12 -4 -19 -1 -8 3 -5 6 6 6 11 1 17 -2 13 -5z m126 -12 c-6 -15 -5 -15 10 -3
15 12 17 12 11 -3 -8 -21 -17 -20 -37 2 -15 16 -15 18 3 19 14 1 17 -3 13 -15z
m727 8 c0 -5 -4 -10 -10 -10 -5 0 -10 5 -10 10 0 6 5 10 10 10 6 0 10 -4 10
-10z m-874 -33 c-3 -7 -13 -37 -22 -68 l-16 -56 -78 1 c-77 1 -77 1 -51 18 29
20 61 73 61 103 0 18 5 20 56 17 37 -3 53 -8 50 -15z m-149 7 c-3 -3 -12 -4
-19 -1 -8 3 -5 6 6 6 11 1 17 -2 13 -5z m186 -9 c-3 -9 -8 -14 -10 -11 -3 3
-2 9 2 15 9 16 15 13 8 -4z m103 -48 c-17 -5 -33 -10 -36 -10 -2 -1 -5 15 -6
35 l-2 37 38 -27 37 -27 -31 -8z m2044 53 c0 -5 -2 -10 -4 -10 -3 0 -8 5 -11
10 -3 6 -1 10 4 10 6 0 11 -4 11 -10z m-2363 -16 c2 -7 -8 -9 -27 -6 -16 2
-27 8 -24 14 8 12 46 6 51 -8z m374 -1 c13 -16 12 -17 -3 -4 -10 7 -18 15 -18
17 0 8 8 3 21 -13z m1386 11 c-3 -3 -12 -4 -19 -1 -8 3 -5 6 6 6 11 1 17 -2
13 -5z m43 -24 c4 -25 0 -40 -9 -40 -10 0 -22 51 -14 63 7 11 21 -3 23 -23z
m530 8 c0 -16 -3 -19 -11 -11 -6 6 -8 16 -5 22 11 17 16 13 16 -11z m-2290 -8
c0 -11 -4 -20 -9 -20 -5 0 -7 9 -4 20 3 11 7 20 9 20 2 0 4 -9 4 -20z m748 -4
c26 -14 61 -37 77 -51 l30 -27 -34 23 c-18 12 -56 35 -85 50 -63 35 -53 38 12
5z m280 -17 c2 -43 -12 -46 -20 -5 -4 19 6 46 17 46 1 0 2 -18 3 -41z m1156
32 c3 -4 -6 -6 -19 -3 -14 2 -25 6 -25 8 0 8 39 4 44 -5z m-2255 -16 c2 -3 0
-10 -5 -15 -13 -13 -77 8 -68 22 6 9 62 4 73 -7z m281 5 c0 -5 -2 -10 -4 -10
-3 0 -8 5 -11 10 -3 6 -1 10 4 10 6 0 11 -4 11 -10z m1480 0 c0 -5 -5 -10 -11
-10 -5 0 -7 5 -4 10 3 6 8 10 11 10 2 0 4 -4 4 -10z m-1520 -10 c0 -5 -4 -10
-9 -10 -5 0 -7 -8 -4 -19 3 -11 -2 -21 -11 -24 -10 -4 -16 -1 -16 8 0 8 5 15
11 15 5 0 7 5 4 10 -7 12 2 30 16 30 5 0 9 -4 9 -10z m1565 -29 c4 -15 3 -21
-3 -17 -5 3 -12 17 -15 32 -5 30 8 20 18 -15z m470 17 c7 -7 1 -8 -20 -4 -16
4 -34 12 -40 18 -7 7 -1 8 20 4 17 -4 35 -12 40 -18z m115 1 c0 -5 -4 -9 -10
-9 -5 0 -10 7 -10 16 0 8 5 12 10 9 6 -3 10 -10 10 -16z m-2429 -25 c-1 -10
-6 -10 -38 1 -13 4 -23 13 -23 21 0 11 5 11 31 0 17 -7 30 -17 30 -22z m75 0
c-4 -9 -13 -14 -21 -10 -9 3 -15 0 -15 -9 0 -8 -7 -15 -17 -15 -14 0 -14 2 2
20 10 11 21 17 25 15 4 -3 11 5 15 18 4 14 8 17 12 9 3 -7 2 -20 -1 -28z
m2409 26 c3 -5 -1 -10 -9 -10 -8 0 -18 5 -21 10 -3 6 1 10 9 10 8 0 18 -4 21
-10z m-2175 -50 c-8 -5 -11 -12 -8 -16 4 -4 2 -16 -4 -28 -7 -11 -12 -24 -13
-28 0 -3 -4 -10 -8 -15 -12 -11 3 69 15 84 6 7 8 19 5 27 -9 23 7 29 17 6 7
-16 6 -24 -4 -30z m1475 40 c-3 -5 -11 -10 -16 -10 -6 0 -7 5 -4 10 3 6 11 10
16 10 6 0 7 -4 4 -10z m40 -27 c3 -13 2 -23 -3 -23 -17 0 -33 27 -26 44 8 20
19 11 29 -21z m412 15 c-3 -8 -6 -5 -6 6 -1 11 2 17 5 13 3 -3 4 -12 1 -19z
m-1797 7 c0 -2 -23 -15 -50 -28 -44 -21 -48 -22 -34 -6 10 11 31 23 48 28 17
5 32 10 34 10 1 1 2 -1 2 -4z m37 -1 c-3 -3 -12 -4 -19 -1 -8 3 -5 6 6 6 11 1
17 -2 13 -5z m233 -30 c0 -14 7 -35 15 -48 25 -38 -10 -68 -62 -51 -26 8 -28
15 -10 34 9 11 9 12 0 7 -9 -5 -11 -2 -7 8 3 9 12 16 19 16 8 0 17 5 20 10 4
6 1 9 -6 8 -19 -5 -21 18 -4 36 21 20 35 12 35 -20z m-744 4 c4 -5 -4 -8 -17
-6 -12 1 -24 8 -26 15 -5 14 34 6 43 -9z m2362 5 c6 -19 -33 -16 -49 3 -11 14
-9 15 16 12 16 -1 30 -9 33 -15z m-554 -7 c8 3 16 -2 19 -10 4 -9 2 -16 -2
-16 -5 0 -15 -2 -23 -5 -9 -4 -13 4 -14 22 -1 16 1 23 3 16 2 -7 10 -10 17 -7z
m496 -13 c0 -19 -13 -9 -16 12 -1 8 2 13 7 9 5 -3 9 -12 9 -21z m-2350 -3 c0
-5 -7 -10 -16 -10 -8 0 -12 5 -9 10 3 6 10 10 16 10 5 0 9 -4 9 -10z m336 -16
c-11 -7 -22 -11 -25 -8 -3 3 3 12 13 20 11 7 22 11 25 8 3 -3 -3 -12 -13 -20z
m-259 10 c-3 -3 -12 -4 -19 -1 -8 3 -5 6 6 6 11 1 17 -2 13 -5z m2343 -10 c0
-14 -3 -14 -15 -4 -8 7 -15 14 -15 16 0 2 7 4 15 4 8 0 15 -7 15 -16z m-200
-4 c11 -7 35 -62 50 -115 10 -40 -20 -75 -65 -75 -41 0 -63 99 -26 120 9 6 11
10 4 10 -16 0 -17 30 -2 30 5 0 7 5 4 10 -7 11 2 30 13 30 4 0 14 -4 22 -10z
m165 -8 c-3 -3 -11 0 -18 7 -9 10 -8 11 6 5 10 -3 15 -9 12 -12z m-2188 -8
c-3 -3 -12 -4 -19 -1 -8 3 -5 6 6 6 11 1 17 -2 13 -5z m130 -21 c-15 -16 -17
-16 -17 -1 0 9 6 18 13 21 20 7 22 -2 4 -20z m-162 7 c3 -5 2 -10 -4 -10 -5 0
-13 5 -16 10 -3 6 -2 10 4 10 5 0 13 -4 16 -10z m1075 -23 c0 -18 -2 -19 -10
-7 -13 20 -13 43 0 35 6 -3 10 -16 10 -28z m-725 13 c3 -5 2 -10 -4 -10 -5 0
-13 5 -16 10 -3 6 -2 10 4 10 5 0 13 -4 16 -10z m-381 -9 c8 -13 -3 -19 -24
-14 -11 3 -17 9 -14 14 7 11 31 12 38 0z m57 -38 c-9 -16 -10 -15 -11 8 0 14
3 29 8 33 12 12 14 -22 3 -41z m284 38 c3 -5 1 -12 -5 -16 -5 -3 -10 1 -10 9
0 18 6 21 15 7z m-305 -41 c0 -19 -7 -33 -19 -40 -17 -9 -20 -7 -19 12 1 20
24 58 35 58 1 0 3 -13 3 -30z m370 9 c0 -14 -16 -11 -29 5 -10 12 -8 13 8 9
12 -3 21 -9 21 -14z m615 1 c10 -11 14 -20 9 -20 -5 0 -17 9 -27 20 -9 11 -13
20 -8 20 4 0 16 -9 26 -20z m-1050 0 c-3 -5 -17 -10 -31 -10 -14 0 -22 4 -19
10 3 6 17 10 31 10 14 0 22 -4 19 -10z m395 -28 c0 -21 -2 -24 -10 -12 -13 20
-13 53 0 45 6 -3 10 -18 10 -33z m-430 -2 c-20 -13 -40 -13 -40 0 0 6 12 10
28 10 21 0 24 -2 12 -10z m50 -15 c0 -14 -4 -25 -10 -25 -11 0 -14 33 -3 43
11 11 13 8 13 -18z m434 10 c3 -9 0 -15 -9 -15 -8 0 -15 7 -15 15 0 8 4 15 9
15 5 0 11 -7 15 -15z m674 -10 c-6 -14 -13 -23 -15 -21 -5 5 15 46 22 46 3 0
-1 -11 -7 -25z m-1138 -15 c0 -11 -4 -20 -10 -20 -5 0 -10 9 -10 20 0 11 5 20
10 20 6 0 10 -9 10 -20z m440 -13 c0 -5 -4 -5 -10 -2 -5 3 -10 14 -10 23 0 15
2 15 10 2 5 -8 10 -19 10 -23z m-477 13 c8 0 8 -3 0 -11 -9 -9 -16 -7 -30 7
-17 17 -17 18 0 11 10 -4 24 -7 30 -7z m517 -19 c0 -4 -6 -8 -14 -8 -8 0 -12
6 -9 14 5 13 23 9 23 -6z m650 -32 c-7 -11 -14 -19 -16 -16 -7 7 7 37 17 37 6
0 5 -9 -1 -21z m7 -71 c-3 -7 -5 -2 -5 12 0 14 2 19 5 13 2 -7 2 -19 0 -25z
m13 -222 c0 -3 -4 -8 -10 -11 -5 -3 -10 -1 -10 4 0 6 5 11 10 11 6 0 10 -2 10
-4z m-10 -56 c0 -5 -5 -10 -11 -10 -5 0 -7 5 -4 10 3 6 8 10 11 10 2 0 4 -4 4
-10z m60 -259 c0 -6 -4 -12 -8 -15 -5 -3 -9 1 -9 9 0 8 4 15 9 15 4 0 8 -4 8
-9z m-144 -29 c-17 -16 -18 -16 -5 5 7 12 15 20 18 17 3 -2 -3 -12 -13 -22z
m34 -29 c-11 -17 -11 -17 -6 0 3 10 6 24 7 30 0 9 2 9 5 0 3 -7 0 -20 -6 -30z
m110 23 c0 -3 -4 -8 -10 -11 -5 -3 -10 -1 -10 4 0 6 5 11 10 11 6 0 10 -2 10
-4z"/>
<path d="M1521 2294 c0 -11 3 -14 6 -6 3 7 2 16 -1 19 -3 4 -6 -2 -5 -13z"/>
<path d="M1124 1725 c-10 -41 -12 -105 -3 -105 4 0 9 10 12 23 3 12 12 43 20
69 15 44 15 47 -3 45 -12 -1 -21 -12 -26 -32z m9 -40 c-3 -9 -8 -14 -10 -11
-3 3 -2 9 2 15 9 16 15 13 8 -4z"/>
<path d="M1431 1324 c0 -11 3 -14 6 -6 3 7 2 16 -1 19 -3 4 -6 -2 -5 -13z"/>
<path d="M2218 1953 c7 -3 16 -2 19 1 4 3 -2 6 -13 5 -11 0 -14 -3 -6 -6z"/>
<path d="M560 1961 c0 -6 4 -13 10 -16 6 -3 7 1 4 9 -7 18 -14 21 -14 7z"/>
<path d="M1742 1355 c-7 -14 -12 -31 -12 -38 1 -7 7 3 16 22 17 39 13 54 -4
16z"/>
<path d="M1542 1064 c-23 -31 -42 -64 -41 -73 0 -10 4 -6 10 9 6 14 28 46 50
73 22 26 36 47 31 47 -5 0 -27 -25 -50 -56z"/>
<path d="M1467 1037 c-3 -9 -2 -19 4 -22 5 -4 6 -11 3 -17 -4 -6 -2 -8 3 -5 6
4 13 16 16 27 3 11 1 18 -3 15 -5 -3 -10 0 -12 7 -3 8 -7 6 -11 -5z"/>
<path d="M1424 765 c-7 -26 0 -83 15 -130 8 -24 9 -20 3 20 -4 28 -6 69 -6 93
0 48 -3 53 -12 17z"/>
<path d="M1451 720 c0 -8 4 -24 9 -35 5 -13 9 -14 9 -5 0 8 -4 24 -9 35 -5 13
-9 14 -9 5z"/>
<path d="M1490 590 c-8 -26 -7 -41 2 -32 6 6 8 16 5 24 -3 7 -6 11 -7 8z"/>
<path d="M1331 374 c0 -11 3 -14 6 -6 3 7 2 16 -1 19 -3 4 -6 -2 -5 -13z"/>
<path d="M1451 284 c0 -11 3 -14 6 -6 3 7 2 16 -1 19 -3 4 -6 -2 -5 -13z"/>
<path d="M1236 1365 c4 -8 11 -15 16 -15 6 0 5 6 -2 15 -7 8 -14 15 -16 15 -2
0 -1 -7 2 -15z"/>
</g>
</svg>
